<?xml version="1.0" encoding="UTF-8"?>
<svg xmlns="http://www.w3.org/2000/svg" xmlns:xlink="http://www.w3.org/1999/xlink" width="38px" height="38px" viewBox="0 0 38 38" version="1.1">
<g id="surface1">
<path style=" stroke:none;fill-rule:nonzero;fill:rgb(100%,100%,100%);fill-opacity:1;" d="M 0 7.125 C 0 5.8125 1.214844 4.75 2.714844 4.75 L 35.285156 4.75 C 36.785156 4.75 38 5.8125 38 7.125 C 38 8.4375 36.785156 9.5 35.285156 9.5 L 2.714844 9.5 C 1.214844 9.5 0 8.4375 0 7.125 M 0 19 C 0 17.6875 1.214844 16.625 2.714844 16.625 L 35.285156 16.625 C 36.785156 16.625 38 17.6875 38 19 C 38 20.3125 36.785156 21.375 35.285156 21.375 L 2.714844 21.375 C 1.214844 21.375 0 20.3125 0 19 M 38 30.875 C 38 32.1875 36.785156 33.25 35.285156 33.25 L 2.714844 33.25 C 1.214844 33.25 0 32.1875 0 30.875 C 0 29.5625 1.214844 28.5 2.714844 28.5 L 35.285156 28.5 C 36.785156 28.5 38 29.5625 38 30.875 "/>
</g>
</svg>
