<?xml version="1.0" encoding="UTF-8"?>
<svg xmlns="http://www.w3.org/2000/svg" xmlns:xlink="http://www.w3.org/1999/xlink" width="45px" height="45px" viewBox="0 0 45 45" version="1.1">
<g id="surface1">
<path style=" stroke:none;fill-rule:nonzero;fill:rgb(100%,100%,100%);fill-opacity:1;" d="M 35.726562 35.121094 C 34.046875 31.015625 30.015625 28.125 25.3125 28.125 L 19.6875 28.125 C 14.984375 28.125 10.953125 31.015625 9.273438 35.121094 C 6.144531 31.835938 4.21875 27.394531 4.21875 22.5 C 4.21875 12.402344 12.402344 4.21875 22.5 4.21875 C 32.597656 4.21875 40.78125 12.402344 40.78125 22.5 C 40.78125 27.394531 38.855469 31.835938 35.726562 35.121094 M 32.203125 37.996094 C 29.390625 39.761719 26.066406 40.78125 22.5 40.78125 C 18.929688 40.78125 15.609375 39.761719 12.789062 37.996094 C 13.429688 34.769531 16.277344 32.34375 19.6875 32.34375 L 25.3125 32.34375 C 28.722656 32.34375 31.570312 34.769531 32.210938 37.996094 Z M 22.5 45 C 34.925781 45 45 34.925781 45 22.5 C 45 10.074219 34.925781 0 22.5 0 C 10.074219 0 0 10.074219 0 22.5 C 0 34.925781 10.074219 45 22.5 45 M 22.5 21.09375 C 20.558594 21.09375 18.984375 19.519531 18.984375 17.578125 C 18.984375 15.636719 20.558594 14.0625 22.5 14.0625 C 24.441406 14.0625 26.015625 15.636719 26.015625 17.578125 C 26.015625 19.519531 24.441406 21.09375 22.5 21.09375 M 14.765625 17.578125 C 14.765625 21.851562 18.226562 25.3125 22.5 25.3125 C 26.773438 25.3125 30.234375 21.851562 30.234375 17.578125 C 30.234375 13.304688 26.773438 9.84375 22.5 9.84375 C 18.226562 9.84375 14.765625 13.304688 14.765625 17.578125 "/>
</g>
</svg>
