<?xml version="1.0" encoding="UTF-8"?>
<svg xmlns="http://www.w3.org/2000/svg" xmlns:xlink="http://www.w3.org/1999/xlink" width="45px" height="45px" viewBox="0 0 45 45" version="1.1">
<g id="surface1">
<path style=" stroke:none;fill-rule:nonzero;fill:rgb(100%,100%,100%);fill-opacity:1;" d="M 6.429688 2.8125 C 2.882812 2.8125 0 5.335938 0 8.4375 L 0 36.5625 C 0 39.664062 2.882812 42.1875 6.429688 42.1875 L 16.292969 42.1875 L 16.292969 29.375 L 10.988281 29.375 L 10.988281 22.5 L 16.292969 22.5 L 16.292969 19.539062 C 16.292969 11.882812 20.25 8.332031 28.847656 8.332031 C 30.476562 8.332031 33.289062 8.613281 34.441406 8.894531 L 34.441406 15.117188 C 33.839844 15.0625 32.785156 15.03125 31.46875 15.03125 C 27.25 15.03125 25.625 16.425781 25.625 20.054688 L 25.625 22.5 L 34.019531 22.5 L 32.574219 29.375 L 25.613281 29.375 L 25.613281 42.1875 L 38.570312 42.1875 C 42.117188 42.1875 45 39.664062 45 36.5625 L 45 8.4375 C 45 5.335938 42.117188 2.8125 38.570312 2.8125 Z M 6.429688 2.8125 "/>
</g>
</svg>
