<?xml version="1.0" encoding="UTF-8"?>
<svg xmlns="http://www.w3.org/2000/svg" xmlns:xlink="http://www.w3.org/1999/xlink" width="45px" height="45px" viewBox="0 0 45 45" version="1.1">
<g id="surface1">
<path style=" stroke:none;fill-rule:nonzero;fill:rgb(100%,100%,100%);fill-opacity:1;" d="M 19.527344 18.605469 C 17.066406 20.046875 16.40625 22.957031 18.050781 25.109375 C 19.695312 27.261719 23.023438 27.839844 25.484375 26.402344 C 27.945312 24.964844 28.605469 22.050781 26.960938 19.898438 C 25.316406 17.746094 21.988281 17.167969 19.527344 18.605469 M 33.820312 12.59375 C 33.296875 12.136719 32.664062 11.777344 31.972656 11.539062 C 30.152344 10.914062 26.1875 10.941406 23.625 10.96875 C 23.214844 10.96875 22.832031 10.976562 22.5 10.976562 C 22.167969 10.976562 21.777344 10.976562 21.355469 10.96875 C 18.792969 10.941406 14.847656 10.90625 13.027344 11.539062 C 12.335938 11.777344 11.710938 12.136719 11.179688 12.59375 C 10.648438 13.050781 10.246094 13.605469 9.972656 14.210938 C 9.261719 15.800781 9.300781 19.28125 9.320312 21.523438 C 9.320312 21.882812 9.332031 22.21875 9.332031 22.5 C 9.332031 22.78125 9.332031 23.117188 9.320312 23.476562 C 9.300781 25.714844 9.261719 29.195312 9.972656 30.789062 C 10.246094 31.394531 10.65625 31.9375 11.179688 32.40625 C 11.703125 32.871094 12.335938 33.222656 13.027344 33.460938 C 14.847656 34.082031 18.8125 34.058594 21.375 34.03125 C 21.785156 34.03125 22.167969 34.023438 22.5 34.023438 C 22.832031 34.023438 23.222656 34.023438 23.644531 34.03125 C 26.207031 34.058594 30.152344 34.09375 31.972656 33.460938 C 32.664062 33.222656 33.289062 32.863281 33.820312 32.40625 C 34.351562 31.949219 34.753906 31.394531 35.027344 30.789062 C 35.75 29.207031 35.707031 25.742188 35.679688 23.492188 C 35.679688 23.125 35.667969 22.78125 35.667969 22.492188 C 35.667969 22.199219 35.667969 21.867188 35.679688 21.488281 C 35.707031 19.246094 35.75 15.785156 35.027344 14.195312 C 34.753906 13.585938 34.34375 13.042969 33.820312 12.578125 Z M 27.082031 16.507812 C 30.863281 18.71875 31.878906 23.199219 29.351562 26.507812 C 26.820312 29.816406 21.703125 30.707031 17.917969 28.496094 C 14.136719 26.28125 13.117188 21.808594 15.644531 18.496094 C 18.171875 15.1875 23.285156 14.292969 27.070312 16.503906 Z M 30.011719 16.390625 C 29.703125 16.207031 29.449219 15.941406 29.300781 15.636719 C 29.148438 15.328125 29.121094 14.992188 29.191406 14.660156 C 29.261719 14.328125 29.449219 14.035156 29.710938 13.796875 C 29.972656 13.5625 30.324219 13.402344 30.695312 13.339844 C 31.066406 13.28125 31.460938 13.304688 31.8125 13.4375 C 32.164062 13.570312 32.464844 13.78125 32.675781 14.054688 C 32.886719 14.324219 32.996094 14.652344 32.996094 14.984375 C 32.996094 15.203125 32.945312 15.425781 32.855469 15.625 C 32.765625 15.828125 32.613281 16.015625 32.445312 16.171875 C 32.273438 16.328125 32.050781 16.453125 31.820312 16.539062 C 31.589844 16.628906 31.339844 16.671875 31.089844 16.671875 C 30.707031 16.671875 30.335938 16.574219 30.023438 16.390625 Z M 45 8.4375 C 45 5.335938 42.117188 2.8125 38.570312 2.8125 L 6.429688 2.8125 C 2.882812 2.8125 0 5.335938 0 8.4375 L 0 36.5625 C 0 39.664062 2.882812 42.1875 6.429688 42.1875 L 38.570312 42.1875 C 42.117188 42.1875 45 39.664062 45 36.5625 Z M 35.859375 34.1875 C 33.980469 35.832031 31.699219 36.351562 29.128906 36.464844 C 26.476562 36.597656 18.523438 36.597656 15.871094 36.464844 C 13.300781 36.351562 11.019531 35.832031 9.140625 34.1875 C 7.261719 32.546875 6.667969 30.550781 6.550781 28.300781 C 6.398438 25.980469 6.398438 19.019531 6.550781 16.699219 C 6.679688 14.449219 7.261719 12.453125 9.140625 10.8125 C 11.019531 9.167969 13.308594 8.648438 15.871094 8.542969 C 18.523438 8.410156 26.476562 8.410156 29.128906 8.542969 C 31.699219 8.65625 33.980469 9.167969 35.859375 10.8125 C 37.738281 12.453125 38.332031 14.449219 38.449219 16.699219 C 38.601562 19.011719 38.601562 25.960938 38.449219 28.292969 C 38.320312 30.542969 37.738281 32.539062 35.859375 34.179688 Z M 35.859375 34.1875 "/>
</g>
</svg>
