<?xml version="1.0" encoding="UTF-8"?>
<svg xmlns="http://www.w3.org/2000/svg" xmlns:xlink="http://www.w3.org/1999/xlink" width="45px" height="45px" viewBox="0 0 45 45" version="1.1">
<g id="surface1">
<path style=" stroke:none;fill-rule:nonzero;fill:rgb(100%,100%,100%);fill-opacity:1;" d="M 28.324219 22.515625 L 18.761719 17.761719 L 18.761719 27.273438 Z M 38.570312 2.8125 L 6.429688 2.8125 C 2.882812 2.8125 0 5.335938 0 8.4375 L 0 36.5625 C 0 39.664062 2.882812 42.1875 6.429688 42.1875 L 38.570312 42.1875 C 42.117188 42.1875 45 39.664062 45 36.5625 L 45 8.4375 C 45 5.335938 42.117188 2.8125 38.570312 2.8125 M 40.019531 14.773438 C 40.78125 17.289062 40.78125 22.527344 40.78125 22.527344 C 40.78125 22.527344 40.78125 27.765625 40.019531 30.269531 C 39.597656 31.65625 38.359375 32.703125 36.785156 33.074219 C 33.941406 33.75 22.5 33.75 22.5 33.75 C 22.5 33.75 11.058594 33.75 8.214844 33.082031 C 6.640625 32.710938 5.402344 31.667969 4.980469 30.277344 C 4.21875 27.765625 4.21875 22.527344 4.21875 22.527344 C 4.21875 22.527344 4.21875 17.28125 4.980469 14.773438 C 5.402344 13.386719 6.640625 12.296875 8.214844 11.925781 C 11.058594 11.25 22.5 11.25 22.5 11.25 C 22.5 11.25 33.941406 11.25 36.785156 11.925781 C 38.359375 12.296875 39.597656 13.386719 40.019531 14.773438 "/>
</g>
</svg>
